<svg width="18" height="33" viewBox="0 0 18 33" fill="none" xmlns="http://www.w3.org/2000/svg">
<path d="M17.5749 15.1275L2.30007 0.501468C2.0452 0.257302 1.70659 0.121093 1.35447 0.121093C1.00235 0.121093 0.66374 0.257302 0.408871 0.501468L0.392426 0.517995C0.268442 0.636362 0.169718 0.778839 0.102255 0.936759C0.0347919 1.09468 1.85737e-06 1.26474 1.84986e-06 1.4366C1.84235e-06 1.60846 0.0347919 1.77852 0.102255 1.93644C0.169718 2.09436 0.268442 2.23684 0.392425 2.3552L14.7765 16.1274L0.392424 29.8941C0.268441 30.0124 0.169716 30.1549 0.102254 30.3128C0.0347906 30.4707 5.73585e-07 30.6408 5.66074e-07 30.8127C5.58564e-07 30.9845 0.0347906 31.1546 0.102254 31.3125C0.169716 31.4704 0.268441 31.6129 0.392424 31.7313L0.408869 31.7478C0.663739 31.992 1.00234 32.1282 1.35447 32.1282C1.70659 32.1282 2.0452 31.992 2.30006 31.7478L17.5749 17.1217C17.7092 16.9931 17.8162 16.8384 17.8892 16.667C17.9623 16.4956 18 16.3111 18 16.1246C18 15.9382 17.9623 15.7536 17.8892 15.5822C17.8162 15.4108 17.7092 15.2562 17.5749 15.1275Z" fill="#FF3C43"/>
</svg>
