<svg width="74" height="45" viewBox="0 0 74 45" fill="none" xmlns="http://www.w3.org/2000/svg"><rect width="74" height="45" rx="5" fill="#FFE9EB"/><path fill-rule="evenodd" clip-rule="evenodd" d="M44.333 37.11c-2.091-.077-8.019-.896-14.226-7.102-6.207-6.208-7.025-12.133-7.103-14.226-.116-3.19 2.327-6.288 5.149-7.498a2.135 2.135 0 0 1 2.099.231c2.324 1.694 3.927 4.256 5.304 6.27a2.184 2.184 0 0 1-.372 2.885l-2.834 2.104a.697.697 0 0 0-.206.895c.642 1.166 1.784 2.903 3.091 4.21 1.309 1.308 3.127 2.525 4.375 3.24a.702.702 0 0 0 .935-.236l1.845-2.807a2.183 2.183 0 0 1 2.986-.483c2.044 1.415 4.429 2.991 6.175 5.226a2.135 2.135 0 0 1 .274 2.157c-1.216 2.837-4.292 5.252-7.492 5.134Z" fill="#FF3C43"/></svg>