<svg width="35" height="35" viewBox="0 0 35 35" fill="none" xmlns="http://www.w3.org/2000/svg"><path d="M19.238 34.372h-7.217a11.977 11.977 0 0 0-3.525-8.47A12.056 12.056 0 0 0 0 22.389v-7.19c9.73-.729 18.505 7.991 19.238 19.174Z" fill="#B248FF"/><path d="M.004 22.387v-7.19a15.167 15.167 0 0 0 10.694-4.419A15.078 15.078 0 0 0 15.134.121h7.2a22.252 22.252 0 0 1-6.547 15.734A22.4 22.4 0 0 1 .004 22.387Z" fill="#00A8FF"/><path d="M34.364 19.294a19.296 19.296 0 0 1-13.59-5.625A19.169 19.169 0 0 1 15.133.12h7.2a11.977 11.977 0 0 0 3.525 8.47 12.056 12.056 0 0 0 8.498 3.514l.008 7.19Z" fill="#FF4352"/><path d="M19.238 34.37H12.02a22.255 22.255 0 0 1 6.551-15.74 22.402 22.402 0 0 1 15.792-6.526v7.188a15.17 15.17 0 0 0-10.69 4.421 15.07 15.07 0 0 0-4.435 10.657Z" fill="#46E650"/></svg>