<svg xmlns="http://www.w3.org/2000/svg" width="40" height="40" viewBox="0 0 40 40" fill="none">
  <rect width="40" height="40" rx="5" fill="black" fill-opacity="0.4"/>
  <path d="M19.7548 26.7884L19.7534 26.7871C17.4023 24.5599 15.5294 22.7806 14.2325 21.1231C12.9478 19.481 12.3223 18.0729 12.3223 16.6041C12.3223 14.1924 14.1058 12.4004 16.3034 12.4004C17.5603 12.4004 18.7961 13.0171 19.6062 14.0031L20.3789 14.9437L21.1515 14.0031C21.9616 13.0171 23.1974 12.4004 24.4543 12.4004C26.6519 12.4004 28.4355 14.1924 28.4355 16.6041C28.4355 18.0729 27.81 19.481 26.5252 21.1231C25.2284 22.7806 23.3554 24.5599 21.0043 26.7871L21.0029 26.7884L20.3789 27.3819L19.7548 26.7884Z" stroke="white" stroke-width="2"/>
</svg>