<svg width="21" height="22" viewBox="0 0 21 22" fill="none" xmlns="http://www.w3.org/2000/svg">
<g id="mingcute:down-line" clip-path="url(#clip0_314_1177)">
<g id="Group">
<path id="Vector" fill-rule="evenodd" clip-rule="evenodd" d="M13.7433 10.3517C13.9074 10.5236 13.9995 10.7567 13.9995 10.9998C13.9995 11.2428 13.9074 11.4759 13.7433 11.6478L8.79344 16.8334C8.71272 16.921 8.61617 16.9908 8.50942 17.0389C8.40267 17.0869 8.28785 17.1122 8.17167 17.1132C8.05548 17.1143 7.94026 17.0911 7.83273 17.045C7.7252 16.9989 7.6275 16.9309 7.54534 16.8448C7.46319 16.7587 7.39822 16.6564 7.35422 16.5437C7.31022 16.4311 7.28809 16.3104 7.2891 16.1886C7.29011 16.0669 7.31424 15.9467 7.3601 15.8348C7.40596 15.723 7.47262 15.6218 7.55619 15.5373L11.8874 10.9998L7.55619 6.46227C7.3968 6.28938 7.30861 6.05783 7.3106 5.81748C7.31259 5.57714 7.40462 5.34722 7.56685 5.17727C7.72908 5.00731 7.94854 4.9109 8.17796 4.90882C8.40739 4.90673 8.62841 4.99912 8.79344 5.1661L13.7433 10.3517Z" fill="white"/>
</g>
</g>
<defs>
<clipPath id="clip0_314_1177">
<rect width="22" height="21" fill="white" transform="translate(0 22) rotate(-90)"/>
</clipPath>
</defs>
</svg>
