<svg width="33" height="32" viewBox="0 0 33 32" fill="none" xmlns="http://www.w3.org/2000/svg">
<path id="Vector" d="M14.9742 28.7973L14.9724 28.7956C10.7002 24.7012 7.25133 21.3887 4.85598 18.2914C2.47612 15.2142 1.25 12.4896 1.25 9.59128C1.25 4.82854 4.74618 1.25 9.075 1.25C11.5417 1.25 13.9504 2.47053 15.5297 4.41524L16.5 5.61014L17.4703 4.41524C19.0496 2.47053 21.4583 1.25 23.925 1.25C28.2538 1.25 31.75 4.82854 31.75 9.59128C31.75 12.4896 30.5239 15.2142 28.144 18.2914C25.7487 21.3887 22.2998 24.7012 18.0276 28.7956L18.0258 28.7973L16.5 30.2654L14.9742 28.7973Z" stroke="#FF3C43" stroke-width="2.5"/>
</svg>
