<svg width="35" height="35" viewBox="0 0 35 35" fill="none" xmlns="http://www.w3.org/2000/svg">
<path d="M19.2383 34.372H12.0213C12.017 31.1939 10.7489 28.1476 8.49574 25.9029C6.24066 23.6558 3.18593 22.3922 0 22.3885V15.1989C9.73065 14.4692 18.5046 23.1895 19.2383 34.372Z" fill="#B248FF"/>
<path d="M0.00390625 22.3871V15.1976C4.01375 15.1951 7.85919 13.6061 10.6979 10.7784C12.102 9.37987 13.2165 7.71889 13.9777 5.89031C14.739 4.06172 15.1321 2.10134 15.1344 0.121094H22.3333C22.3263 6.02472 19.9717 11.684 15.7871 15.855C11.5981 20.0304 5.9231 22.3791 0.00390625 22.3871Z" fill="#00A8FF"/>
<path d="M34.3635 19.2942C29.267 19.2861 24.381 17.2635 20.7738 13.6687C17.1698 10.0775 15.141 5.20485 15.1328 0.121094H22.3327C22.3369 3.29917 23.605 6.34549 25.8583 8.59025C28.1139 10.8377 31.1693 12.1014 34.3559 12.1046L34.3635 19.2942Z" fill="#FF4352"/>
<path d="M19.2375 34.3695H12.0195C12.0271 28.4635 14.3838 22.8023 18.5714 18.6309C22.7635 14.4552 28.4419 12.1082 34.3632 12.1035V19.2921C30.3542 19.2962 26.51 20.8859 23.6721 23.7132C20.8374 26.5379 19.2423 30.3709 19.2375 34.3695Z" fill="#46E650"/>
</svg>
