<svg width="24" height="24" viewBox="0 0 24 24" fill="none" xmlns="http://www.w3.org/2000/svg">
<path d="M11.1214 20.5245L11.1197 20.5229C8.00597 17.5731 5.51955 15.2112 3.79699 13.0095C2.08962 10.8272 1.25 8.94513 1.25 6.97534C1.25 3.74121 3.64389 1.33008 6.6 1.33008C8.28933 1.33008 9.94748 2.15847 11.0341 3.48121L12 4.65693L12.9659 3.48121C14.0525 2.15847 15.7107 1.33008 17.4 1.33008C20.3561 1.33008 22.75 3.74121 22.75 6.97534C22.75 8.94513 21.9104 10.8272 20.203 13.0095C18.4804 15.2112 15.994 17.5731 12.8803 20.5229L12.8786 20.5245L12 21.3601L11.1214 20.5245Z" stroke="white" stroke-width="2.5"/>
</svg>
