<svg viewBox="0 0 25 33" fill="none" xmlns="http://www.w3.org/2000/svg">
<path d="M12.5 33C12.5 33 24.875 21.2726 24.875 12.375C24.875 9.09295 23.5712 5.94532 21.2504 3.62455C18.9297 1.30379 15.7821 0 12.5 0C9.21795 0 6.07032 1.30379 3.74955 3.62455C1.42879 5.94532 0.125 9.09295 0.125 12.375C0.125 21.2726 12.5 33 12.5 33ZM12.5 18.5625C10.859 18.5625 9.28516 17.9106 8.12478 16.7502C6.9644 15.5898 6.3125 14.016 6.3125 12.375C6.3125 10.734 6.9644 9.16016 8.12478 7.99978C9.28516 6.8394 10.859 6.1875 12.5 6.1875C14.141 6.1875 15.7148 6.8394 16.8752 7.99978C18.0356 9.16016 18.6875 10.734 18.6875 12.375C18.6875 14.016 18.0356 15.5898 16.8752 16.7502C15.7148 17.9106 14.141 18.5625 12.5 18.5625Z" fill="url(#paint0_linear_314_1108)"/>
<defs>
<linearGradient id="paint0_linear_314_1108" x1="49.4605" y1="95.7" x2="-56.1026" y2="-30.3852" gradientUnits="userSpaceOnUse">
<stop stop-color="#EB1D24"/>
<stop offset="1" stop-color="#FF9999"/>
</linearGradient>
</defs>
</svg>