<svg width="28" height="28" viewBox="0 0 28 28" fill="none" xmlns="http://www.w3.org/2000/svg">
<path d="M13.9994 0.875C6.78802 0.875 0.941406 6.75159 0.941406 14C0.941406 21.2484 6.78802 27.125 13.9994 27.125C21.2109 27.125 27.0575 21.2484 27.0575 14C27.0575 6.75159 21.2109 0.875 13.9994 0.875ZM20.0262 16.0192H13.9994C13.733 16.0192 13.4776 15.9129 13.2892 15.7235C13.1008 15.5342 12.995 15.2774 12.995 15.0096V5.92308C12.995 5.65531 13.1008 5.39851 13.2892 5.20917C13.4776 5.01983 13.733 4.91346 13.9994 4.91346C14.2658 4.91346 14.5213 5.01983 14.7097 5.20917C14.8981 5.39851 15.0039 5.65531 15.0039 5.92308V14H20.0262C20.2926 14 20.5481 14.1064 20.7365 14.2957C20.9249 14.485 21.0307 14.7418 21.0307 15.0096C21.0307 15.2774 20.9249 15.5342 20.7365 15.7235C20.5481 15.9129 20.2926 16.0192 20.0262 16.0192Z" fill="url(#paint0_linear_314_1119)"/>
<defs>
<linearGradient id="paint0_linear_314_1119" x1="53" y1="77" x2="-24" y2="-45" gradientUnits="userSpaceOnUse">
<stop stop-color="#EB1D24"/>
<stop offset="1" stop-color="#FF9999"/>
</linearGradient>
</defs>
</svg>
