<svg width="17" height="13" viewBox="0 0 17 13" fill="none" xmlns="http://www.w3.org/2000/svg">
<path d="M5.85911 12.8668C5.72199 12.8664 5.58643 12.8378 5.46085 12.7827C5.33527 12.7276 5.22235 12.6473 5.12911 12.5468L0.269109 7.37562C0.087436 7.18197 -0.00988585 6.92406 -0.00144671 6.65864C0.00699243 6.39322 0.120501 6.14202 0.314109 5.96031C0.507717 5.77859 0.765565 5.68125 1.03093 5.68969C1.29629 5.69813 1.54744 5.81167 1.72911 6.00532L5.84911 10.3963L14.2591 1.19425C14.3445 1.08795 14.4506 1.00022 14.5711 0.936457C14.6916 0.872692 14.8238 0.834235 14.9597 0.823448C15.0956 0.812661 15.2322 0.829773 15.3612 0.873731C15.4903 0.91769 15.6089 0.987567 15.71 1.07907C15.811 1.17058 15.8923 1.28178 15.9488 1.40584C16.0053 1.52991 16.0359 1.66422 16.0386 1.80052C16.0413 1.93683 16.0162 2.07226 15.9647 2.19848C15.9132 2.32471 15.8364 2.43907 15.7391 2.53455L6.59911 12.5368C6.50675 12.6391 6.39422 12.7213 6.2686 12.7781C6.14297 12.8349 6.00696 12.8651 5.86911 12.8668H5.85911Z" fill="#FF4B4B"/>
</svg>
