<svg width="22" height="23" viewBox="0 0 22 23" fill="none" xmlns="http://www.w3.org/2000/svg">
<path fill-rule="evenodd" clip-rule="evenodd" d="M16.1839 22.1013C14.5972 22.0429 10.1005 21.4215 5.39113 16.7132C0.682871 12.0037 0.0625219 7.50804 0.0030213 5.92023C-0.0851277 3.5005 1.76821 1.15019 3.90912 0.232324C4.16693 0.120998 4.44926 0.0786126 4.72839 0.109328C5.00753 0.140042 5.27388 0.242802 5.50132 0.407523C7.2643 1.69232 8.48075 3.63603 9.52532 5.16434C9.75515 5.50012 9.85342 5.90871 9.8014 6.31228C9.74938 6.71584 9.55071 7.08616 9.24324 7.35268L7.09351 8.9493C6.98965 9.0243 6.91654 9.13445 6.88776 9.25929C6.85899 9.38412 6.8765 9.51516 6.93704 9.62806C7.42407 10.5129 8.29013 11.8307 9.28181 12.8224C10.2746 13.8141 11.6541 14.7375 12.6006 15.2796C12.7193 15.3462 12.859 15.3648 12.991 15.3316C13.1229 15.2984 13.2372 15.2159 13.3102 15.1011L14.7096 12.9712C14.9669 12.6294 15.3464 12.4005 15.7687 12.3323C16.191 12.2641 16.6233 12.3619 16.975 12.6053C18.5253 13.6786 20.3346 14.8741 21.659 16.5699C21.8371 16.799 21.9504 17.0717 21.987 17.3596C22.0237 17.6474 21.9823 17.9398 21.8673 18.2062C20.945 20.3582 18.6113 22.1906 16.1839 22.1013Z" fill="#FF3C43"/>
</svg>
