<svg viewBox="0 0 149 52" fill="none" xmlns="http://www.w3.org/2000/svg"><g filter="url(#a)"><rect width="149" height="52" rx="5" fill="#FF3C43"/></g><mask id="b" style="mask-type:alpha" maskUnits="userSpaceOnUse" x="0" y="0" width="149" height="52"><rect width="149" height="52" rx="5" fill="#EB1D24"/></mask><g mask="url(#b)"><path d="M37.57 19.046 27.474 21.75c.086-.125.177-.248.26-.378a8.799 8.799 0 0 0 1.199-6.931 9.718 9.718 0 0 0-12.246-7.073 8.797 8.797 0 0 0-5.406 4.505 16.367 16.367 0 0 0-1.473 4.861 16.368 16.368 0 0 0-3.706-3.473 8.8 8.8 0 0 0-6.934-1.198A9.717 9.717 0 0 0-7.9 24.31a8.798 8.798 0 0 0 4.504 5.403c.135.066.275.127.414.198l-10.095 2.705a4.767 4.767 0 0 0-3.37 5.837l2.467 9.209a4.767 4.767 0 0 0 5.838 3.37l4.935 18.417a4.767 4.767 0 0 0 5.838 3.37l41.438-11.103a4.767 4.767 0 0 0 3.37-5.837l-4.935-18.417a4.767 4.767 0 0 0 3.37-5.838l-2.467-9.209a4.766 4.766 0 0 0-5.838-3.37Zm-22.017-5.047a4.079 4.079 0 0 1 2.53-2.066l.142-.037a4.95 4.95 0 0 1 6.067 3.639 4.08 4.08 0 0 1-.524 3.224c-2.083 3.15-6.387 5.215-9.116 6.267-.471-3.14-.708-7.823.9-11.027Zm-18.415 5.046a4.954 4.954 0 0 1 2.985-2.302l.141-.038a4.078 4.078 0 0 1 3.225.524c3.145 2.08 5.21 6.376 6.258 9.093-2.874.462-7.63.81-11.004-.873a4.078 4.078 0 0 1-2.066-2.53 4.946 4.946 0 0 1 .45-3.871l.01-.003Zm-8.981 18.176 23.02-6.169 2.468 9.209-23.02 6.168-2.468-9.208ZM-3.538 49.8l18.417-4.935 4.935 18.417-18.417 4.934L-3.538 49.8Zm46.373 7.313-18.417 4.935-4.935-18.417L37.9 38.696l4.935 18.417ZM41.27 32.858l-23.02 6.169-2.468-9.209 23.021-6.168 2.468 9.209Z" fill="#fff"/></g><path d="M66.164 23.855h-2.022a1.976 1.976 0 0 0-.226-.697 1.775 1.775 0 0 0-.44-.526 1.932 1.932 0 0 0-.618-.332 2.367 2.367 0 0 0-.752-.116c-.49 0-.916.122-1.279.365-.363.24-.645.59-.845 1.053-.2.458-.3 1.015-.3 1.67 0 .675.1 1.241.3 1.7.203.458.486.804.85 1.038.363.234.783.351 1.26.351.268 0 .516-.035.743-.106a1.783 1.783 0 0 0 1.057-.813c.12-.197.204-.421.25-.674l2.022.01a3.772 3.772 0 0 1-1.228 2.331 3.934 3.934 0 0 1-1.247.748c-.48.181-1.023.272-1.63.272-.843 0-1.597-.19-2.261-.572-.662-.382-1.185-.934-1.57-1.657-.382-.724-.572-1.6-.572-2.627 0-1.031.193-1.908.581-2.632.388-.723.914-1.274 1.58-1.652.664-.382 1.412-.573 2.243-.573.547 0 1.055.077 1.523.231a3.87 3.87 0 0 1 1.251.674c.363.292.659.65.886 1.076.231.424.38.91.444 1.459ZM67.56 30v-7.09h1.967v2.75h.554l1.93-2.75h2.308l-2.507 3.517L74.346 30H72.01l-1.75-2.516h-.733V30H67.56Zm9.496-2.595 2.553-4.496h1.94V30h-1.875v-4.51L77.13 30h-1.953v-7.09h1.88v4.495Zm5.515 4.672V28.44h.544c.157-.099.284-.256.379-.471a3.72 3.72 0 0 0 .24-.762c.065-.292.114-.608.148-.946.037-.342.069-.687.097-1.034l.184-2.318h5.439v5.53H90.7v3.638h-1.874V30h-4.335v2.077h-1.92Zm2.502-3.637h2.673v-4.017h-1.911l-.074.804c-.053.757-.128 1.4-.227 1.93-.098.526-.252.953-.461 1.283ZM91.846 30v-7.09h1.967v2.75h.554l1.93-2.75h2.308l-2.507 3.517L98.632 30h-2.335l-1.75-2.516h-.734V30h-1.967Zm9.64.134c-.453 0-.856-.079-1.21-.236a1.947 1.947 0 0 1-.84-.706c-.203-.314-.305-.705-.305-1.172 0-.394.073-.725.217-.993.145-.268.342-.483.591-.646a2.86 2.86 0 0 1 .849-.37 6.504 6.504 0 0 1 1.007-.175c.412-.043.745-.083.997-.12.252-.04.435-.099.549-.175a.385.385 0 0 0 .171-.342v-.028c0-.292-.092-.518-.277-.678-.181-.16-.44-.24-.775-.24-.354 0-.636.078-.845.235a1.087 1.087 0 0 0-.416.582l-1.819-.148a2.47 2.47 0 0 1 .545-1.117c.271-.317.62-.56 1.048-.73.431-.172.93-.258 1.496-.258.394 0 .771.046 1.131.138.363.093.685.236.965.43.283.193.506.443.669.747.163.302.245.664.245 1.085V30h-1.865v-.983h-.056a2 2 0 0 1-.457.586 2.11 2.11 0 0 1-.688.392 2.839 2.839 0 0 1-.927.139Zm.563-1.357c.289 0 .544-.057.766-.171.222-.117.396-.274.522-.471.126-.197.189-.42.189-.67v-.752a1.06 1.06 0 0 1-.254.11 4.7 4.7 0 0 1-.355.089l-.397.069-.36.05a2.429 2.429 0 0 0-.605.162.967.967 0 0 0-.402.3.733.733 0 0 0-.143.462c0 .268.097.472.291.614.197.138.446.208.748.208ZM109.995 30v-1.44l3.365-3.116c.286-.277.527-.527.72-.748a2.84 2.84 0 0 0 .448-.651 1.61 1.61 0 0 0 .153-.697c0-.277-.064-.516-.19-.716a1.24 1.24 0 0 0-.517-.466 1.618 1.618 0 0 0-.743-.166c-.289 0-.542.058-.757.175a1.207 1.207 0 0 0-.499.503 1.63 1.63 0 0 0-.175.78h-1.897c0-.618.14-1.155.42-1.61a2.8 2.8 0 0 1 1.177-1.058c.505-.25 1.086-.374 1.745-.374.677 0 1.266.12 1.768.36.505.237.897.567 1.177.988.28.422.42.905.42 1.45 0 .357-.071.71-.212 1.057-.139.348-.386.734-.743 1.159-.357.421-.861.928-1.51 1.518l-1.38 1.353v.065h3.97V30h-6.74Zm11.641.13c-.652 0-1.234-.12-1.745-.36a3.038 3.038 0 0 1-1.209-.993 2.543 2.543 0 0 1-.466-1.45h1.939c.021.366.175.663.461.891a1.59 1.59 0 0 0 1.02.342c.314 0 .591-.07.831-.208.244-.142.433-.337.568-.586.139-.253.208-.542.208-.868 0-.333-.071-.625-.212-.877a1.506 1.506 0 0 0-.577-.591 1.701 1.701 0 0 0-.845-.217c-.277 0-.547.057-.808.17a1.46 1.46 0 0 0-.605.467l-1.777-.319.448-4.985h5.779v1.634h-4.131l-.245 2.368h.055c.167-.234.417-.428.753-.582.335-.154.711-.23 1.126-.23.57 0 1.077.133 1.524.401.446.268.798.636 1.057 1.103.258.465.386 1 .383 1.607.003.637-.145 1.203-.443 1.699-.296.492-.71.88-1.242 1.163-.529.28-1.145.42-1.847.42Zm10.101-1.903v-.498c0-.379.08-.727.24-1.044.163-.32.399-.575.707-.766.311-.194.689-.29 1.135-.29.453 0 .833.095 1.141.285.31.191.544.447.701.767.16.317.24.666.24 1.048v.498c0 .379-.08.728-.24 1.048-.16.317-.395.571-.706.762-.311.194-.689.29-1.136.29-.452 0-.832-.096-1.14-.29a1.877 1.877 0 0 1-.702-.762 2.31 2.31 0 0 1-.24-1.048Zm1.344-.498v.498c0 .219.052.425.157.619.107.194.301.29.581.29.28 0 .471-.095.573-.285.104-.191.157-.4.157-.624v-.498c0-.225-.05-.434-.148-.628-.098-.194-.292-.291-.582-.291-.277 0-.469.097-.577.29a1.279 1.279 0 0 0-.161.629Zm-6.196-4.912v-.499c0-.381.082-.73.245-1.048.163-.32.399-.575.706-.766.311-.19.687-.286 1.127-.286.455 0 .837.095 1.145.286.307.19.541.446.701.766.16.317.24.667.24 1.048v.499c0 .381-.081.73-.244 1.048-.16.317-.396.57-.707.761-.307.188-.686.282-1.135.282-.45 0-.83-.095-1.14-.286a1.916 1.916 0 0 1-.702-.762 2.318 2.318 0 0 1-.236-1.043Zm1.353-.499v.499c0 .224.052.432.157.623.108.19.297.286.568.286.283 0 .475-.095.577-.286a1.27 1.27 0 0 0 .157-.623v-.499a1.36 1.36 0 0 0-.148-.628c-.098-.194-.294-.29-.586-.29-.274 0-.463.098-.568.295a1.306 1.306 0 0 0-.157.623ZM127.495 30l6.5-9.454h1.209l-6.5 9.454h-1.209ZM57 32.585h79.968v.887H57v-.887Z" fill="#fff"/><defs><filter id="a" x="0" y="0" width="149" height="56" filterUnits="userSpaceOnUse" color-interpolation-filters="sRGB"><feFlood flood-opacity="0" result="BackgroundImageFix"/><feBlend in="SourceGraphic" in2="BackgroundImageFix" result="shape"/><feColorMatrix in="SourceAlpha" values="0 0 0 0 0 0 0 0 0 0 0 0 0 0 0 0 0 0 127 0" result="hardAlpha"/><feOffset dy="4"/><feGaussianBlur stdDeviation="5.2"/><feComposite in2="hardAlpha" operator="arithmetic" k2="-1" k3="1"/><feColorMatrix values="0 0 0 0 1 0 0 0 0 1 0 0 0 0 1 0 0 0 0.25 0"/><feBlend in2="shape" result="effect1_innerShadow_326_256"/></filter></defs></svg>