<svg width="66" height="66" viewBox="0 0 66 66" fill="none" xmlns="http://www.w3.org/2000/svg">
<g filter="url(#filter0_i_326_844)">
<rect width="66" height="66" rx="5" fill="#FF3C43"/>
</g>
<path d="M20.9302 11.8008H19.2192C19.188 11.5794 19.1242 11.3828 19.0278 11.2109C18.9315 11.0365 18.8078 10.888 18.6567 10.7656C18.5057 10.6432 18.3312 10.5495 18.1333 10.4844C17.938 10.4193 17.7257 10.3867 17.4966 10.3867C17.0825 10.3867 16.7218 10.4896 16.4146 10.6953C16.1073 10.8984 15.869 11.1953 15.6997 11.5859C15.5304 11.974 15.4458 12.4453 15.4458 13C15.4458 13.5703 15.5304 14.0495 15.6997 14.4375C15.8716 14.8255 16.1112 15.1185 16.4185 15.3164C16.7257 15.5143 17.0812 15.6133 17.4849 15.6133C17.7114 15.6133 17.9211 15.5833 18.1138 15.5234C18.3091 15.4635 18.4823 15.3763 18.6333 15.2617C18.7843 15.1445 18.9093 15.0026 19.0083 14.8359C19.1099 14.6693 19.1802 14.4792 19.2192 14.2656L20.9302 14.2734C20.8859 14.6406 20.7752 14.9948 20.5981 15.3359C20.4237 15.6745 20.188 15.9779 19.8911 16.2461C19.5968 16.5117 19.2453 16.7227 18.8364 16.8789C18.4302 17.0326 17.9705 17.1094 17.4575 17.1094C16.744 17.1094 16.106 16.9479 15.5435 16.625C14.9836 16.3021 14.5409 15.8346 14.2153 15.2227C13.8924 14.6107 13.731 13.8698 13.731 13C13.731 12.1276 13.895 11.3854 14.2231 10.7734C14.5513 10.1615 14.9966 9.69531 15.5591 9.375C16.1216 9.05208 16.7544 8.89062 17.4575 8.89062C17.9211 8.89062 18.3507 8.95573 18.7466 9.08594C19.145 9.21615 19.4979 9.40625 19.8052 9.65625C20.1125 9.90365 20.3625 10.207 20.5552 10.5664C20.7505 10.9258 20.8755 11.3372 20.9302 11.8008ZM22.1118 17V11H23.7759V13.3281H24.2446L25.8774 11H27.8306L25.7095 13.9766L27.854 17H25.8774L24.397 14.8711H23.7759V17H22.1118ZM30.147 14.8047L32.3071 11H33.9478V17H32.3618V13.1836L30.2095 17H28.5571V11H30.147V14.8047ZM34.813 18.7578V15.6797H35.2739C35.4067 15.5964 35.5135 15.4635 35.5942 15.2812C35.6776 15.099 35.7453 14.8841 35.7974 14.6367C35.8521 14.3893 35.8937 14.1224 35.9224 13.8359C35.9536 13.5469 35.981 13.2552 36.0044 12.9609L36.1606 11H40.7622V15.6797H41.6919V18.7578H40.106V17H36.438V18.7578H34.813ZM36.9302 15.6797H39.1919V12.2812H37.5747L37.5122 12.9609C37.4679 13.6016 37.4041 14.1458 37.3208 14.5938C37.2375 15.0391 37.1073 15.401 36.9302 15.6797ZM42.6616 17V11H44.3257V13.3281H44.7944L46.4272 11H48.3804L46.2593 13.9766L48.4038 17H46.4272L44.9468 14.8711H44.3257V17H42.6616ZM50.8179 17.1133C50.4351 17.1133 50.0939 17.0469 49.7944 16.9141C49.495 16.7786 49.258 16.5794 49.0835 16.3164C48.9116 16.0508 48.8257 15.7201 48.8257 15.3242C48.8257 14.9909 48.8869 14.7109 49.0093 14.4844C49.1317 14.2578 49.2983 14.0755 49.5093 13.9375C49.7202 13.7995 49.9598 13.6953 50.228 13.625C50.4989 13.5547 50.7827 13.5052 51.0796 13.4766C51.4285 13.4401 51.7098 13.4062 51.9233 13.375C52.1369 13.3411 52.2918 13.2917 52.3882 13.2266C52.4845 13.1615 52.5327 13.0651 52.5327 12.9375V12.9141C52.5327 12.6667 52.4546 12.4753 52.2983 12.3398C52.1447 12.2044 51.9259 12.1367 51.6421 12.1367C51.3426 12.1367 51.1043 12.2031 50.9272 12.3359C50.7502 12.4661 50.633 12.6302 50.5757 12.8281L49.0366 12.7031C49.1147 12.3385 49.2684 12.0234 49.4976 11.7578C49.7267 11.4896 50.0223 11.2839 50.3843 11.1406C50.7489 10.9948 51.1707 10.9219 51.6499 10.9219C51.9832 10.9219 52.3022 10.9609 52.6069 11.0391C52.9142 11.1172 53.1864 11.2383 53.4233 11.4023C53.6629 11.5664 53.8517 11.7773 53.9897 12.0352C54.1278 12.2904 54.1968 12.5964 54.1968 12.9531V17H52.6187V16.168H52.5718C52.4754 16.3555 52.3465 16.5208 52.1851 16.6641C52.0236 16.8047 51.8296 16.9154 51.603 16.9961C51.3765 17.0742 51.1147 17.1133 50.8179 17.1133ZM51.2944 15.9648C51.5392 15.9648 51.7554 15.9167 51.9429 15.8203C52.1304 15.7214 52.2775 15.5885 52.3843 15.4219C52.491 15.2552 52.5444 15.0664 52.5444 14.8555V14.2188C52.4924 14.2526 52.4207 14.2839 52.3296 14.3125C52.241 14.3385 52.1408 14.3633 52.0288 14.3867C51.9168 14.4076 51.8049 14.4271 51.6929 14.4453C51.5809 14.4609 51.4793 14.4753 51.3882 14.4883C51.1929 14.5169 51.0223 14.5625 50.8765 14.625C50.7306 14.6875 50.6174 14.7721 50.5366 14.8789C50.4559 14.9831 50.4155 15.1133 50.4155 15.2695C50.4155 15.4961 50.4976 15.6693 50.6616 15.7891C50.8283 15.9062 51.0392 15.9648 51.2944 15.9648ZM22.9126 30V28.7812L25.7603 26.1445C26.0024 25.9102 26.2056 25.6992 26.3696 25.5117C26.5363 25.3242 26.6626 25.1406 26.7485 24.9609C26.8345 24.7786 26.8774 24.582 26.8774 24.3711C26.8774 24.1367 26.8241 23.9349 26.7173 23.7656C26.6105 23.5937 26.4647 23.4622 26.2798 23.3711C26.0949 23.2773 25.8853 23.2305 25.6509 23.2305C25.4061 23.2305 25.1925 23.2799 25.0103 23.3789C24.828 23.4779 24.6873 23.6198 24.5884 23.8047C24.4894 23.9896 24.4399 24.2096 24.4399 24.4648H22.8345C22.8345 23.9414 22.953 23.487 23.1899 23.1016C23.4269 22.7161 23.759 22.418 24.186 22.207C24.6131 21.9961 25.1053 21.8906 25.6626 21.8906C26.2355 21.8906 26.7342 21.9922 27.1587 22.1953C27.5858 22.3958 27.9178 22.6745 28.1548 23.0312C28.3918 23.388 28.5103 23.7969 28.5103 24.2578C28.5103 24.5599 28.4504 24.8581 28.3306 25.1523C28.2134 25.4466 28.0037 25.7734 27.7017 26.1328C27.3996 26.4896 26.9738 26.918 26.4243 27.418L25.2563 28.5625V28.6172H28.6157V30H22.9126ZM32.7632 30.1094C32.2111 30.1094 31.7189 30.0078 31.2866 29.8047C30.8569 29.6016 30.5158 29.3216 30.2632 28.9648C30.0106 28.6081 29.8791 28.1992 29.8687 27.7383H31.5093C31.5275 28.0482 31.6577 28.2995 31.8999 28.4922C32.1421 28.6849 32.4299 28.7812 32.7632 28.7812C33.0288 28.7812 33.2632 28.7227 33.4663 28.6055C33.672 28.4857 33.8322 28.3203 33.9468 28.1094C34.064 27.8958 34.1226 27.651 34.1226 27.375C34.1226 27.0937 34.0627 26.8464 33.9429 26.6328C33.8257 26.4193 33.6629 26.2526 33.4546 26.1328C33.2463 26.013 33.008 25.9518 32.7397 25.9492C32.5054 25.9492 32.2775 25.9974 32.0562 26.0937C31.8374 26.1901 31.6668 26.3216 31.5444 26.4883L30.0405 26.2188L30.4194 22H35.3101V23.3828H31.814L31.6069 25.3867H31.6538C31.7944 25.1888 32.0067 25.0247 32.2905 24.8945C32.5744 24.7643 32.8921 24.6992 33.2437 24.6992C33.7254 24.6992 34.1551 24.8125 34.5327 25.0391C34.9103 25.2656 35.2085 25.5768 35.4272 25.9727C35.646 26.3659 35.7541 26.819 35.7515 27.332C35.7541 27.8711 35.6291 28.3503 35.3765 28.7695C35.1265 29.1862 34.7762 29.5143 34.3257 29.7539C33.8778 29.9909 33.3569 30.1094 32.7632 30.1094ZM41.3101 28.5V28.0781C41.3101 27.7578 41.3778 27.4635 41.5132 27.1953C41.6512 26.9245 41.8504 26.7083 42.1108 26.5469C42.3739 26.3828 42.6942 26.3008 43.0718 26.3008C43.4546 26.3008 43.7762 26.3815 44.0366 26.543C44.2996 26.7044 44.4976 26.9206 44.6304 27.1914C44.7658 27.4596 44.8335 27.7552 44.8335 28.0781V28.5C44.8335 28.8203 44.7658 29.1159 44.6304 29.3867C44.495 29.6549 44.2957 29.8698 44.0327 30.0313C43.7697 30.1953 43.4494 30.2773 43.0718 30.2773C42.689 30.2773 42.3674 30.1953 42.1069 30.0313C41.8465 29.8698 41.6486 29.6549 41.5132 29.3867C41.3778 29.1159 41.3101 28.8203 41.3101 28.5ZM42.4468 28.0781V28.5C42.4468 28.6849 42.491 28.8594 42.5796 29.0234C42.6707 29.1875 42.8348 29.2695 43.0718 29.2695C43.3088 29.2695 43.4702 29.1888 43.5562 29.0273C43.6447 28.8659 43.689 28.6901 43.689 28.5V28.0781C43.689 27.888 43.6473 27.7109 43.564 27.5469C43.4806 27.3828 43.3166 27.3008 43.0718 27.3008C42.8374 27.3008 42.6746 27.3828 42.5835 27.5469C42.4924 27.7109 42.4468 27.888 42.4468 28.0781ZM37.2046 23.9219V23.5C37.2046 23.1771 37.2736 22.8815 37.4116 22.6133C37.5496 22.3424 37.7489 22.1263 38.0093 21.9648C38.2723 21.8034 38.59 21.7227 38.9624 21.7227C39.3478 21.7227 39.6707 21.8034 39.9312 21.9648C40.1916 22.1263 40.3895 22.3424 40.5249 22.6133C40.6603 22.8815 40.728 23.1771 40.728 23.5V23.9219C40.728 24.2448 40.659 24.5404 40.521 24.8086C40.3856 25.0768 40.1864 25.2917 39.9233 25.4531C39.6629 25.612 39.3426 25.6914 38.9624 25.6914C38.5822 25.6914 38.2606 25.6107 37.9976 25.4492C37.7371 25.2852 37.5392 25.0703 37.4038 24.8047C37.271 24.5365 37.2046 24.2422 37.2046 23.9219ZM38.3491 23.5V23.9219C38.3491 24.112 38.3934 24.2878 38.4819 24.4492C38.5731 24.6107 38.7332 24.6914 38.9624 24.6914C39.202 24.6914 39.3647 24.6107 39.4507 24.4492C39.5392 24.2878 39.5835 24.112 39.5835 23.9219V23.5C39.5835 23.3099 39.5418 23.1328 39.4585 22.9687C39.3752 22.8047 39.2098 22.7227 38.9624 22.7227C38.7306 22.7227 38.5705 22.806 38.4819 22.9727C38.3934 23.1393 38.3491 23.3151 38.3491 23.5ZM37.7202 30L43.2202 22H44.2437L38.7437 30H37.7202Z" fill="white"/>
<path d="M13.1763 19.1875H54.8257V19.9375H13.1763V19.1875ZM22.2642 32.1875H45.7358V32.9375H22.2642V32.1875Z" fill="white"/>
<mask id="mask0_326_844" style="mask-type:alpha" maskUnits="userSpaceOnUse" x="0" y="32" width="66" height="34">
<rect y="32" width="66" height="34" rx="5" fill="#FF3C43"/>
</mask>
<g mask="url(#mask0_326_844)">
<path d="M45.8236 44.6087L40.2338 46.1065C40.2818 46.0373 40.3319 45.9692 40.3775 45.8972C40.7462 45.3376 40.9955 44.7079 41.1098 44.0475C41.2241 43.3871 41.2009 42.7103 41.0416 42.0593C40.8728 41.3457 40.56 40.6741 40.1223 40.0857C39.6845 39.4974 39.1312 39.0047 38.4962 38.638C37.8612 38.2712 37.1579 38.0381 36.4296 37.953C35.7012 37.8679 34.9631 37.9325 34.2607 38.143C33.6169 38.3304 33.0188 38.6487 32.5038 39.0779C31.9887 39.5072 31.5678 40.0381 31.2674 40.6375C30.8571 41.4868 30.5818 42.3949 30.4516 43.3291C29.8717 42.5852 29.1792 41.9364 28.3992 41.406C27.8393 41.0371 27.2094 40.7878 26.5487 40.6736C25.888 40.5594 25.2109 40.5828 24.5597 40.7423C23.8461 40.9113 23.1746 41.2244 22.5864 41.6623C21.9982 42.1002 21.5057 42.6537 21.1392 43.2888C20.7726 43.9239 20.5397 44.6272 20.4548 45.3556C20.3699 46.084 20.4348 46.822 20.6454 47.5245C20.833 48.1679 21.1513 48.7656 21.5805 49.2804C22.0096 49.7951 22.5404 50.2158 23.1395 50.5161C23.2141 50.5525 23.2915 50.5864 23.3686 50.6255L17.7788 52.1233C17.1026 52.3045 16.5261 52.7468 16.1761 53.3531C15.8261 53.9593 15.7312 54.6798 15.9124 55.356L17.2787 60.455C17.4599 61.1312 17.9023 61.7077 18.5085 62.0577C19.1147 62.4077 19.8352 62.5026 20.5114 62.3214L23.2439 72.5195C23.4251 73.1957 23.8675 73.7722 24.4737 74.1222C25.08 74.4722 25.8004 74.5671 26.4766 74.3859L49.4224 68.2376C50.0985 68.0564 50.675 67.614 51.0251 67.0078C51.3751 66.4015 51.4699 65.6811 51.2887 65.0049L48.5562 54.8068C49.2323 54.6256 49.8088 54.1833 50.1589 53.577C50.5089 52.9708 50.6037 52.2503 50.4225 51.5741L49.0563 46.4751C48.8751 45.7989 48.4327 45.2224 47.8265 44.8724C47.2202 44.5224 46.4998 44.4275 45.8236 44.6087ZM33.6321 41.8142C33.7743 41.5372 33.9721 41.2926 34.2133 41.0958C34.4544 40.8989 34.7337 40.754 35.0335 40.6702L35.1115 40.6493C35.4646 40.557 35.8324 40.5362 36.1936 40.588C36.5548 40.6397 36.902 40.7631 37.2149 40.9507C37.5278 41.1384 37.8 41.3866 38.0158 41.6809C38.2315 41.9752 38.3863 42.3095 38.4712 42.6644C38.5485 42.9659 38.5626 43.2802 38.5127 43.5875C38.4628 43.8948 38.3499 44.1884 38.1811 44.45C37.0275 46.1936 34.6442 47.3378 33.1334 47.9202C32.8725 46.1815 32.7412 43.5883 33.6321 41.8142ZM23.4351 44.608C23.7966 43.9818 24.3908 43.5237 25.0883 43.3333L25.1664 43.3124C25.4679 43.235 25.7822 43.2209 26.0895 43.2708C26.3968 43.3207 26.6904 43.4336 26.952 43.6024C28.6936 44.7548 29.8365 47.1333 30.4172 48.6378C28.8257 48.8934 26.1927 49.0866 24.3239 48.1544C24.0469 48.0123 23.8023 47.8145 23.6054 47.5733C23.4085 47.3322 23.2637 47.0529 23.1798 46.7531C23.074 46.3976 23.0415 46.0243 23.0843 45.6559C23.127 45.2874 23.2442 44.9315 23.4287 44.6097L23.4351 44.608ZM18.4619 54.6728L31.2096 51.2571L32.5759 56.3561L19.8282 59.7719L18.4619 54.6728ZM23.0609 61.6382L33.259 58.9057L35.9916 69.1038L25.7935 71.8364L23.0609 61.6382ZM48.7392 65.6881L38.5411 68.4206L35.8085 58.2225L46.0066 55.49L48.7392 65.6881ZM47.873 52.2573L35.1254 55.673L33.7591 50.5739L46.5067 47.1582L47.873 52.2573Z" fill="white"/>
</g>
<defs>
<filter id="filter0_i_326_844" x="0" y="0" width="66" height="70" filterUnits="userSpaceOnUse" color-interpolation-filters="sRGB">
<feFlood flood-opacity="0" result="BackgroundImageFix"/>
<feBlend mode="normal" in="SourceGraphic" in2="BackgroundImageFix" result="shape"/>
<feColorMatrix in="SourceAlpha" type="matrix" values="0 0 0 0 0 0 0 0 0 0 0 0 0 0 0 0 0 0 127 0" result="hardAlpha"/>
<feOffset dy="4"/>
<feGaussianBlur stdDeviation="5.2"/>
<feComposite in2="hardAlpha" operator="arithmetic" k2="-1" k3="1"/>
<feColorMatrix type="matrix" values="0 0 0 0 1 0 0 0 0 1 0 0 0 0 1 0 0 0 0.25 0"/>
<feBlend mode="normal" in2="shape" result="effect1_innerShadow_326_844"/>
</filter>
</defs>
</svg>
