<svg width="160" height="36" viewBox="0 0 160 36" fill="none" xmlns="http://www.w3.org/2000/svg"><g clip-path="url(#a)"><path d="M20.19 36h-7.574a12.6 12.6 0 0 0-3.7-8.902A12.643 12.643 0 0 0 0 23.404v-7.557C10.212 15.08 19.42 24.246 20.19 36Z" fill="#B248FF"/><path d="M.004 23.404v-7.557a15.904 15.904 0 0 0 11.223-4.645A15.85 15.85 0 0 0 15.883 0h7.555a23.408 23.408 0 0 1-6.87 16.538A23.49 23.49 0 0 1 .004 23.404Z" fill="#00A8FF"/><path d="M36.064 20.153a20.234 20.234 0 0 1-14.262-5.913A20.164 20.164 0 0 1 15.882 0h7.556a12.6 12.6 0 0 0 3.7 8.902 12.643 12.643 0 0 0 8.918 3.694l.008 7.557Z" fill="#FF4352"/><path d="M20.19 36h-7.575a23.41 23.41 0 0 1 6.876-16.543 23.492 23.492 0 0 1 16.573-6.861v7.556a15.908 15.908 0 0 0-11.22 4.647 15.852 15.852 0 0 0-4.654 11.2Z" fill="#46E650"/><path d="m53.932.004-8.066 18.442h3.53l2.041-4.723h7.812l2.06 4.721h3.562L56.805 0l-2.873.004Zm-1.168 10.657 2.58-5.911 2.572 5.911h-5.152Zm101.127-5.56c-2.267 0-4.266.815-5.5 2.23l-.124.146 1.858 1.947.155-.161a4.73 4.73 0 0 1 3.506-1.409c1.13 0 2.986.324 3.135 2.432a11.898 11.898 0 0 0-2.724-.316c-3.09 0-6.39 1.183-6.39 4.501 0 2.9 2.537 4.222 4.889 4.222a6.21 6.21 0 0 0 4.364-1.676l.149 1.427H160V10.64c-.002-4.08-3.157-5.537-6.109-5.537V5.1v.001Zm-.889 10.838c-1.396 0-2.128-.756-2.128-1.51 0-.957 1.152-1.92 3.347-1.92a9.243 9.243 0 0 1 2.655.427c-.11 1.776-2.093 3.003-3.88 3.003h.006Zm-6.943-10.6h-3.99l-4.696 5.096V5.34h-3.223v13.113h3.223v-5.124l5.309 5.118h4.321l-6.886-6.668 5.942-6.44Zm-47.73-.253a6.714 6.714 0 0 0-4.708 2 6.69 6.69 0 0 0 .053 9.444 6.714 6.714 0 0 0 9.46 0 6.691 6.691 0 0 0 .053-9.443 6.715 6.715 0 0 0-4.709-2h-.149v-.001Zm0 10.6c-2.099 0-3.626-1.596-3.626-3.797 0-2.202 1.527-3.798 3.626-3.798 2.1 0 3.603 1.598 3.603 3.798s-1.518 3.795-3.609 3.795l.006.002Zm-21.606-4.242c.592-.605.92-1.42.91-2.265 0-1.773-1.239-3.844-4.74-3.844h-6.015v13.114h6.74c3.548 0 4.814-2.053 4.814-3.972a3.54 3.54 0 0 0-1.72-3.035l.011.002Zm-6.618-3.433h2.881c.53 0 1.417.157 1.417 1.207 0 1.117-.99 1.236-1.417 1.236h-2.885l.004-2.443Zm3.502 7.645H70.1v-2.752h3.5c1.02 0 1.617.503 1.617 1.388 0 .885-.613 1.364-1.617 1.364h.007Zm32.468-7.418h3.81v10.21h3.22V8.244h3.988V5.333h-11.026v2.91l.008-.005Zm18.99-3.166c-3.902 0-6.844 2.93-6.844 6.812 0 4.01 2.816 6.81 6.844 6.81 2.629 0 4.75-1.083 5.977-3.044l.105-.168-2.486-1.763-.118.204c-.743 1.21-1.905 1.835-3.455 1.835-2.016 0-3.471-1.207-3.676-3.02h9.961v-.203c.025-.408.025-.653.025-.926.014-4.513-3.167-6.523-6.33-6.523l-.003-.014Zm-3.483 5.182c.504-1.762 2.119-2.396 3.387-2.396 1.589 0 2.798.932 3.149 2.396h-6.536ZM79.549 8.242h3.812v10.206h3.223V8.244h3.99V5.333H79.547v2.91l.002-.001ZM57.59 26.751a3.13 3.13 0 0 0-2.28.96v-.844h-1.164V36h1.164v-3.488a3.125 3.125 0 0 0 2.28.96 3.372 3.372 0 0 0 3.308-2.708 3.36 3.36 0 0 0-3.307-4.019v.006Zm-.077 5.56a2.206 2.206 0 0 1-2.201-2.31 2.198 2.198 0 0 1 1.771-2.048 2.207 2.207 0 0 1 2.262.936 2.196 2.196 0 0 1-.275 2.776 2.207 2.207 0 0 1-1.557.645v.001ZM75.7 30.506h-5.367c.088.523.366.994.782 1.323.442.33.984.5 1.535.48.846 0 1.458-.311 1.838-.932l.948.536c-.63.962-1.57 1.443-2.816 1.443a3.415 3.415 0 0 1-2.485-.946 3.328 3.328 0 0 1-.948-2.415 3.272 3.272 0 0 1 .935-2.402 3.224 3.224 0 0 1 2.42-.96 2.926 2.926 0 0 1 2.293.997c.596.647.917 1.5.895 2.379.001.166-.009.332-.03.497Zm-3.152-2.825a2.228 2.228 0 0 0-1.478.5 2.162 2.162 0 0 0-.737 1.355h4.288a2.186 2.186 0 0 0-.705-1.368 2.014 2.014 0 0 0-1.368-.487Zm-7.512-1.048a3.372 3.372 0 0 0-3.11 2.076 3.356 3.356 0 0 0 2.454 4.58 3.37 3.37 0 0 0 4.025-3.295 3.363 3.363 0 0 0-.988-2.376 3.375 3.375 0 0 0-2.38-.985Zm0 5.563a2.208 2.208 0 0 1-2.204-2.311 2.198 2.198 0 0 1 1.773-2.05 2.21 2.21 0 0 1 2.264.936 2.199 2.199 0 0 1-.274 2.78 2.208 2.208 0 0 1-1.56.645h.001Zm17.425-4.285h2.07v5.329h1.163v-5.33h2.068v-1.162h-5.3v1.163Zm-3.208 1.979 2.97 3.35H80.68l-2.775-3.12v3.12H76.77v-6.491h1.135v2.917l2.644-2.917h1.546l-2.842 3.141Zm-32.01-3.141v6.49h1.131v-5.4h3.175v5.4h1.131v-6.49h-5.438Zm47.245-2.744-3.565 9.235h1.352l.882-2.349h3.898l.882 2.349h1.352l-3.563-9.235h-1.238Zm-.857 5.725 1.474-3.874 1.476 3.873h-2.95v.001Zm7.608 3.51h1.158l2.518-6.489h-1.35l-1.766 4.644h.069l-1.766-4.646h-1.356l2.493 6.49v.001Zm15.27-6.607a3.371 3.371 0 0 0-3.111 2.075 3.363 3.363 0 0 0 4.399 4.39 3.36 3.36 0 0 0-1.288-6.466v.001Zm0 5.563a2.204 2.204 0 0 1-1.039-4.145 2.206 2.206 0 0 1 1.883-.091 2.2 2.2 0 0 1-.844 4.236Zm-5.94-1.033c0 .058.004.117.012.175.033.22.144.42.313.565.158.138.351.23.559.265.082.014.164.02.247.02h.87v1.052h-1.131a2.374 2.374 0 0 1-.87-.239 2.217 2.217 0 0 1-.482-.322 1.93 1.93 0 0 1-.649-1.506V27.85h-1.132v-1.09h1.132v-1.356h1.131v1.355h2.001v1.091h-2.001v3.313Zm-4.623-4.414h1.131v6.49h-1.131v-6.49Zm.565-.87a.75.75 0 0 0 .748-.746.748.748 0 1 0-.748.746Z" fill="#000"/></g><defs><clipPath id="a"><path fill="#fff" d="M0 0h160v36H0z"/></clipPath></defs></svg>