<svg width="40" height="40" viewBox="0 0 40 40" fill="none" xmlns="http://www.w3.org/2000/svg">
<g id="Group 1622">
<rect id="Rectangle 470" width="40" height="40" rx="5" fill="black" fill-opacity="0.4"/>
<path id="Vector" d="M19.2359 27.9056L19.2345 27.9042C16.6404 25.4686 14.5661 23.5159 13.1287 21.695C11.7032 19.8892 11 18.329 11 16.6948C11 14.0158 13.0036 12 15.5 12C16.9245 12 18.3184 12.692 19.2301 13.7918L20 14.7207L20.7699 13.7918C21.6816 12.692 23.0755 12 24.5 12C26.9964 12 29 14.0158 29 16.6948C29 18.329 28.2968 19.8892 26.8713 21.695C25.4339 23.5159 23.3596 25.4686 20.7655 27.9042L20.7641 27.9056L20 28.6258L19.2359 27.9056Z" stroke="white" stroke-width="2"/>
</g>
</svg>
