<svg width="109" height="25" viewBox="0 0 109 25" fill="none" xmlns="http://www.w3.org/2000/svg"><rect width="109" height="25" rx="12.5" fill="#000" fill-opacity=".4"/><path d="m30.578 9 2.227 6.516h.09L35.12 9h1.305l-2.88 8h-1.394l-2.879-8h1.305Zm8.1 0v8h-1.207V9h1.207Zm8.105 0v8h-1.11l-4.066-5.867h-.074V17h-1.207V9h1.117l4.07 5.875h.075V9h1.195Zm4.358 8v-6h4.895v6H54.89v-4.992h-2.613V17H51.14Zm6.346 2.25V11h1.14v.973h.098a3.26 3.26 0 0 1 .293-.434 1.67 1.67 0 0 1 .532-.43c.226-.125.526-.187.898-.187.484 0 .917.122 1.297.367.38.245.678.598.895 1.059.218.46.328 1.015.328 1.664 0 .648-.109 1.204-.325 1.668-.216.46-.513.816-.89 1.066a2.306 2.306 0 0 1-1.293.371c-.365 0-.663-.061-.895-.183a1.693 1.693 0 0 1-.539-.43c-.13-.164-.23-.31-.3-.438h-.07v3.184h-1.169ZM58.632 14c0 .422.06.792.183 1.11.123.317.3.566.532.745.231.178.515.266.851.266.349 0 .64-.092.875-.277.234-.188.411-.442.531-.762.123-.32.184-.681.184-1.082 0-.396-.06-.751-.18-1.066a1.633 1.633 0 0 0-.531-.746c-.234-.183-.527-.274-.879-.274-.339 0-.625.087-.86.262a1.607 1.607 0 0 0-.527.73c-.12.313-.18.677-.18 1.094Zm8.062 3.121c-.563 0-1.054-.129-1.473-.387a2.608 2.608 0 0 1-.977-1.082c-.231-.463-.347-1.005-.347-1.625 0-.622.116-1.166.347-1.632.232-.467.558-.829.977-1.086.42-.258.91-.387 1.472-.387.563 0 1.054.129 1.473.387.42.257.745.62.977 1.086.231.466.347 1.01.347 1.632 0 .62-.115 1.162-.347 1.625a2.607 2.607 0 0 1-.977 1.082c-.42.258-.91.387-1.472.387Zm.003-.98c.365 0 .667-.097.907-.29a1.68 1.68 0 0 0 .53-.769 3.06 3.06 0 0 0 .177-1.059c0-.382-.059-.734-.176-1.054a1.718 1.718 0 0 0-.531-.778c-.24-.195-.542-.293-.907-.293-.367 0-.672.098-.914.293-.24.196-.418.455-.535.778-.114.32-.172.672-.172 1.054 0 .386.058.739.172 1.059.117.32.296.577.535.77.242.192.547.289.914.289Zm3.987.859v-6h2.488c.678 0 1.214.145 1.61.434.396.286.594.675.594 1.168 0 .351-.113.63-.336.835-.224.206-.521.344-.891.415.268.03.514.111.738.242.224.127.404.3.54.515.137.216.206.474.206.774 0 .318-.082.599-.246.844a1.632 1.632 0 0 1-.715.57c-.31.135-.683.203-1.12.203h-2.868Zm1.098-.977h1.77c.288 0 .515-.069.679-.207a.697.697 0 0 0 .246-.562c0-.279-.082-.497-.246-.656-.164-.162-.39-.243-.68-.243h-1.77v1.668Zm0-2.523h1.402c.219 0 .406-.031.563-.094a.794.794 0 0 0 .363-.265.681.681 0 0 0 .129-.414.622.622 0 0 0-.285-.543c-.19-.13-.45-.196-.782-.196h-1.39V13.5Zm7.609 3.621c-.592 0-1.1-.126-1.528-.379a2.57 2.57 0 0 1-.984-1.074c-.23-.464-.344-1.006-.344-1.629 0-.614.115-1.156.344-1.625a2.67 2.67 0 0 1 .968-1.098c.417-.263.904-.394 1.462-.394.338 0 .666.056.984.168.318.112.603.288.855.527.253.24.452.551.598.934.146.38.219.842.219 1.386v.415h-4.77v-.875h3.625c0-.308-.062-.58-.187-.817a1.412 1.412 0 0 0-.528-.566 1.474 1.474 0 0 0-.789-.207c-.328 0-.614.08-.86.242a1.635 1.635 0 0 0-.562.625c-.13.255-.195.533-.195.832v.684c0 .4.07.742.211 1.023.143.281.343.496.598.645.255.145.553.218.894.218.222 0 .423-.031.606-.093a1.255 1.255 0 0 0 .777-.762l1.105.199a2 2 0 0 1-.476.855 2.309 2.309 0 0 1-.856.567c-.34.133-.73.2-1.168.2Zm3.76 2.129V11h1.14v.973h.098a3.26 3.26 0 0 1 .293-.434c.127-.164.305-.307.531-.43.227-.125.526-.187.899-.187.484 0 .916.122 1.296.367s.679.598.895 1.059c.219.46.328 1.015.328 1.664 0 .648-.108 1.204-.324 1.668-.216.46-.513.816-.89 1.066a2.306 2.306 0 0 1-1.294.371c-.364 0-.663-.061-.894-.183a1.693 1.693 0 0 1-.54-.43c-.13-.164-.23-.31-.3-.438h-.07v3.184H83.15ZM84.295 14c0 .422.061.792.184 1.11.122.317.3.566.531.745.232.178.516.266.852.266.349 0 .64-.092.875-.277.234-.188.411-.442.53-.762.123-.32.184-.681.184-1.082 0-.396-.06-.751-.18-1.066a1.633 1.633 0 0 0-.53-.746c-.235-.183-.528-.274-.88-.274-.338 0-.624.087-.859.262a1.607 1.607 0 0 0-.527.73 3.05 3.05 0 0 0-.18 1.094Zm8.12 3.121c-.59 0-1.1-.126-1.527-.379a2.57 2.57 0 0 1-.984-1.074c-.23-.464-.344-1.006-.344-1.629 0-.614.115-1.156.344-1.625.232-.469.555-.835.969-1.098.416-.263.903-.394 1.46-.394.34 0 .667.056.985.168.318.112.603.288.855.527.253.24.452.551.598.934.146.38.219.842.219 1.386v.415h-4.77v-.875h3.625c0-.308-.062-.58-.187-.817a1.412 1.412 0 0 0-.528-.566 1.474 1.474 0 0 0-.789-.207c-.328 0-.614.08-.859.242a1.63 1.63 0 0 0-.563.625c-.13.255-.195.533-.195.832v.684c0 .4.07.742.211 1.023.143.281.343.496.598.645.255.145.553.218.894.218.222 0 .423-.031.606-.093a1.257 1.257 0 0 0 .777-.762l1.106.199c-.089.325-.248.61-.477.855a2.31 2.31 0 0 1-.855.567c-.342.133-.73.2-1.168.2Zm7.827-3.625v1.012h-3.25v-1.012h3.25ZM97.32 11v6h-1.144v-6h1.144Zm3.739 0v6h-1.141v-6h1.141Z" fill="#fff"/><circle cx="13.5" cy="12.5" r="10.5" fill="#fff"/><path d="M6.784 11.674c3.983.53 7.011 3.558 7.542 7.54L11.248 20c-.227-2.893-2.355-5.02-5.248-5.248l.784-3.077Z" fill="#965EEB"/><path d="m12.603 5 3.087.79c-.578 4.99-4.578 8.75-9.69 8.965v-3.15c3.643-.229 6.368-2.964 6.603-6.605Z" fill="#04E061"/><path d="M20.214 13.326c-4.24-.566-7.398-3.961-7.612-8.326h3.15c.225 2.894 2.353 5.021 5.247 5.248l-.785 3.078Z" fill="#FF4053"/><path d="M14.397 20h-3.149c.227-5.376 4.375-9.525 9.751-9.75v3.148c-3.636.227-6.367 2.962-6.602 6.603Z" fill="#0AF"/></svg>